<svg xmlns="http://www.w3.org/2000/svg" viewBox="0 0 24 24" id="carrefour"><path fill="#2196F3" d="M22.551 11.307c-5.223-5.349-5.572-5.735-5.695-5.735-.021 0-.035.011-.065.011-.018.027-.045.081-.063.108.049.104.946 1.306.946 2.945 0 .074.074 2.393-2.151 2.393-1.076 0-2.153-.705-2.153-1.897 0-.66.343-1.82 1.333-1.82.209 0 .389.037.483.037a.266.266 0 0 0 .03-.002.355.355 0 0 0 .02-.124c0-.649-1.381-1.982-2.86-1.982-2.652 0-3.487 4.239-3.487 6.759s.835 6.759 3.488 6.759c1.479 0 2.86-1.333 2.86-1.982a.38.38 0 0 0-.02-.124.266.266 0 0 0-.03-.002c-.094 0-.274.037-.483.037-.99 0-1.333-1.159-1.333-1.82 0-1.192 1.077-1.898 2.153-1.898 2.225 0 2.151 2.319 2.151 2.393 0 1.639-.897 2.841-.946 2.945.018.027.045.081.063.108.03 0 .044.011.065.011.123 0 .472-.386 5.695-5.735.18-.198.387-.414.405-.693-.019-.278-.226-.494-.406-.692z"></path><path fill="#F44336" d="M6.485 6.243c-.04-.016-.089-.024-.13-.032C6.242 6.271.75 11.62.75 11.978c0 .359 5.492 5.707 5.605 5.767.04-.008.089-.016.13-.032l.001-.008c0-.264-1.685-1.943-1.685-5.727 0-3.783 1.685-5.463 1.685-5.727l-.001-.008z"></path><path d="M12.223 19.501a3.239 3.239 0 0 1-1.768-.521c-1.801-1.156-2.813-4.255-2.577-7.895.352-4.413 1.937-5.901 3.206-6.374 1.547-.575 3.238.129 4.153 1.03.616.605.856 1.269.661 1.821a.749.749 0 0 1-.603.492c-.214.028-.4.005-.536-.014-.044-.006-.084-.018-.133-.014-.263.007-.532.422-.55.951-.012.344.074 1.154 1.125 1.248.381.025 1.116-.009 1.508-.536.411-.553.382-1.537-.082-2.769a2.034 2.034 0 0 0-.235-.417 4.254 4.254 0 0 1-.304-.516.753.753 0 0 1-.008-.625c.021-.046.062-.121.094-.175a.781.781 0 0 1 .653-.38c.37-.022.608.126.746.276 1.352 1.318 2.412 2.342 3.241 3.144 3.242 3.136 3.242 3.136 3.181 3.876a.759.759 0 0 1-.021.125c-.143.554-.143.554-2.891 3.188-.825.791-1.914 1.833-3.351 3.219l-.418-.269.343.341c-.131.132-.376.378-.777.426a.75.75 0 0 1-.773-.441.817.817 0 0 1-.112-.533c.053-.34.204-.634.35-.917.292-.568.655-1.276.435-2.823-.042-.264-.192-.495-.443-.675-.351-.251-.857-.359-1.324-.278-.829.167-.927.993-.93 1.34-.005.613.256.991.347 1.011.011-.004.104-.029.114-.033.14-.043.401-.125.708-.045a.753.753 0 0 1 .305.16c.271.235.401.587.357.965-.098.853-1.074 1.773-1.593 2.048-.796.43-1.497.589-2.098.589zM12.281 6c-.051 0-.102.001-.153.005-1.518.111-2.495 1.954-2.753 5.189-.194 2.997.583 5.685 1.891 6.524.649.416 1.417.374 2.347-.127.121-.064.269-.191.405-.332a1.592 1.592 0 0 1-.66-.376c-.686-.637-.96-1.89-.652-2.978.287-1.015 1.027-1.712 2.031-1.913.88-.153 1.796.05 2.471.534.572.41.946 1.003 1.053 1.671a7 7 0 0 1 .044 1.805l1.739-1.668c1.438-1.377 2.186-2.094 2.408-2.359-.264-.329-1.133-1.17-2.682-2.668l-1.312-1.27c.155 1.238-.175 2.048-.545 2.547-.605.814-1.611 1.216-2.829 1.137-1.799-.161-2.552-1.52-2.507-2.796.038-1.099.612-1.988 1.411-2.288C13.579 6.316 12.955 6 12.281 6zm2.91 1.312h.01-.01zm1.242-1.254zm-.002-.002c.001.001.001.001 0 0 .001.001.001.001 0 0z"></path><path d="M7.362 19.142c-.427 0-.711-.28-.83-.397a760.136 760.136 0 0 0-3.848-3.602C-.048 12.601-.048 12.601.006 11.875c.198-1.022 6.81-6.937 6.871-6.97a.736.736 0 0 1 .468-.081c.093.013.186.035.279.066a.751.751 0 0 1 .513.619c.038.303-.029.553-.862 1.819-1.385 2.161-1.606 6.635.143 9.434.188.342.321.54.418.686.182.273.37.555.343.983a.752.752 0 0 1-.573.682c-.085.02-.167.029-.244.029zm-5.768-7.106c.286.311.995.971 2.111 2.009.417.388.905.842 1.475 1.375-.695-2.264-.637-4.858-.052-6.884-1.42 1.345-2.994 2.873-3.534 3.5z"></path></svg>